<?xml version="1.0" encoding="iso-8859-1"?>
<!DOCTYPE svg PUBLIC "-//W3C//DTD SVG 1.1//EN" "http://www.w3.org/Graphics/SVG/1.1/DTD/svg11.dtd">
<svg 
 version="1.1" xmlns="http://www.w3.org/2000/svg" xmlns:xlink="http://www.w3.org/1999/xlink" x="0px" y="0px" width="512px"
	 height="512px" viewBox="0 0 512 512" style="enable-background:new 0 0 512 512;" xml:space="preserve"
><g id="5151e0c8492e5103c096af88a502d4c7"><g></g><path d="M405.042,0.5H106.958c-35.131,0-63.875,28.744-63.875,63.875v298.083v85.167c0,35.131,28.744,63.875,63.875,63.875
			h298.083c35.131,0,63.875-28.744,63.875-63.875v-85.167V64.375C468.917,29.244,440.173,0.5,405.042,0.5z M64.375,64.375
			c0-23.481,19.104-42.583,42.583-42.583h298.083c23.479,0,42.583,19.103,42.583,42.583v298.083
			c0,23.479-19.104,42.584-42.583,42.584H106.958c-23.479,0-42.583-19.104-42.583-42.584V64.375z M241.894,204.091v-55.188h17.886
			v55.188h43.943v17.886H259.78v55.955h-17.886v-55.955h-43.689v-17.886H241.894z"></path></g></svg>